<?xml version="1.0" standalone="no"?>
<!DOCTYPE svg PUBLIC "-//W3C//DTD SVG 20010904//EN"
 "http://www.w3.org/TR/2001/REC-SVG-20010904/DTD/svg10.dtd">
<svg version="1.0" xmlns="http://www.w3.org/2000/svg"
 width="414.000000pt" height="389.000000pt" viewBox="0 0 414.000000 389.000000"
 preserveAspectRatio="xMidYMid meet">

<g transform="translate(0.000000,389.000000) scale(0.100000,-0.100000)"
fill="#000000" stroke="none">
<path d="M0 1940 l0 -1940 2070 0 2070 0 0 1940 0 1940 -2070 0 -2070 0 0
-1940z m3398 768 c21 -34 64 -64 110 -78 17 -5 20 -9 9 -9 -57 -3 -126 -67
-147 -139 -5 -16 -9 -20 -9 -9 -1 10 -10 35 -21 57 -20 40 -89 89 -126 91 -13
0 -11 3 8 9 69 21 136 91 139 146 0 13 3 10 9 -8 4 -15 17 -42 28 -60z m-299
-284 c12 -15 21 -35 21 -46 0 -24 -44 -68 -68 -68 -33 0 -72 38 -72 71 0 65
80 93 119 43z m-769 -199 c15 -8 40 -28 56 -44 l28 -30 33 29 c56 49 92 64
163 64 122 0 202 -71 220 -194 11 -73 13 -330 4 -354 -5 -12 -20 -16 -60 -16
l-54 0 0 175 c0 198 -8 232 -62 265 -65 39 -155 16 -190 -50 -15 -30 -18 -59
-18 -213 l0 -178 -57 3 -58 3 -5 192 -5 193 -33 32 c-29 30 -38 33 -92 33 -52
-1 -63 -4 -90 -30 -43 -41 -50 -78 -50 -262 l0 -163 -55 0 -55 0 0 274 c0 151
3 277 8 279 16 9 73 -15 88 -38 l16 -25 34 30 c19 16 47 32 62 36 15 3 32 7
37 10 19 7 108 -7 135 -21z m-1354 -16 c8 -6 14 -18 14 -25 0 -20 11 -17 40
11 28 27 137 52 153 36 4 -4 7 -30 5 -57 l-3 -49 -55 -6 c-117 -12 -124 -27
-128 -261 l-4 -178 -54 0 -54 0 0 273 c0 151 3 276 6 279 7 8 62 -8 80 -23z
m416 -6 c22 -23 23 -34 28 -194 l5 -169 31 -31 c61 -60 174 -46 208 26 13 26
16 70 16 213 0 196 0 196 57 180 53 -14 63 -47 63 -200 0 -146 -13 -217 -50
-271 -51 -74 -145 -107 -252 -88 -85 15 -130 47 -165 118 -27 57 -28 63 -31
247 -3 136 -1 191 8 196 19 12 57 -1 82 -27z m1690 0 c23 -24 23 -27 23 -271
l0 -247 -57 -3 -58 -3 0 275 c0 206 3 275 12 278 23 8 57 -4 80 -29z"/>
</g>
</svg>
